<svg xmlns="http://www.w3.org/2000/svg" width="71" height="22" viewBox="0 0 71 22" fill="none">
    <path d="M2 9.558C1.2036 9.558 0.557998 10.2036 0.557998 11C0.557998 11.7964 1.2036 12.442 2 12.442V9.558ZM70.0196 12.0196C70.5828 11.4565 70.5828 10.5435 70.0196 9.98035L60.8428 0.803508C60.2797 0.240371 59.3666 0.240371 58.8035 0.803508C58.2404 1.36664 58.2404 2.27967 58.8035 2.84281L66.9607 11L58.8035 19.1572C58.2404 19.7203 58.2404 20.6334 58.8035 21.1965C59.3666 21.7596 60.2797 21.7596 60.8428 21.1965L70.0196 12.0196ZM2 12.442H69V9.558H2V12.442Z" fill="black"/>
</svg>