<svg width="50" height="53" viewBox="0 0 50 53" fill="none" xmlns="http://www.w3.org/2000/svg">
    <path d="M49.7751 42.0682L49.5262 41.2767C48.9368 39.4275 47.0048 37.4988 45.2299 36.9906L38.661 35.0964C36.8796 34.5849 34.3385 35.2728 33.0351 36.6484L30.6577 39.1579C22.0177 36.6935 15.2425 29.5418 12.911 20.4235L15.2885 17.9139C16.5919 16.5381 17.2435 13.8594 16.7588 11.979L14.9676 5.04175C14.4829 3.16482 12.6524 1.12552 10.9038 0.510204L10.1539 0.244079C8.40201 -0.37124 5.90345 0.251047 4.60021 1.62669L1.04393 5.38397C0.408603 6.05105 0.00255179 7.95906 0.00255179 7.96603C-0.121831 19.8842 4.30544 31.3667 12.2921 39.7972C20.2592 48.2069 31.0967 52.8733 42.3547 52.7731C42.4136 52.7731 44.2736 52.3513 44.9089 51.6842L48.4652 47.9303C49.7685 46.5548 50.3579 43.9175 49.7751 42.0682Z" fill="#FEFEFE"/>
</svg>