<?xml version="1.0" encoding="UTF-8"?>
<!DOCTYPE svg PUBLIC "-//W3C//DTD SVG 1.1//EN" "http://www.w3.org/Graphics/SVG/1.1/DTD/svg11.dtd">
<svg xmlns="http://www.w3.org/2000/svg" version="1.1" width="372px" height="340px" style="shape-rendering:geometricPrecision; text-rendering:geometricPrecision; image-rendering:optimizeQuality; fill-rule:evenodd; clip-rule:evenodd" xmlns:xlink="http://www.w3.org/1999/xlink">
<g><path style="opacity:0.904" fill="#0149ac" d="M 182.5,-0.5 C 184.5,-0.5 186.5,-0.5 188.5,-0.5C 247.617,22.5996 306.95,45.4329 366.5,68C 365.833,68.1667 365.167,68.3333 364.5,68.5C 304.78,49.3203 245.113,29.9869 185.5,10.5C 125.422,30.8053 65.0885,49.972 4.5,68C 64.05,45.4329 123.383,22.5996 182.5,-0.5 Z"/></g>
<g><path style="opacity:0.886" fill="#fe1716" d="M 141.5,75.5 C 144.64,74.3592 147.973,74.1925 151.5,75C 150.866,77.0745 150.532,79.2412 150.5,81.5C 151.501,91.5068 152.501,101.507 153.5,111.5C 164.838,111.667 176.172,111.5 187.5,111C 186.328,110.581 185.328,109.915 184.5,109C 176.571,108.907 168.738,108.074 161,106.5C 160.5,106.167 160,105.833 159.5,105.5C 163.038,104.355 163.372,102.522 160.5,100C 182.05,88.429 205.05,81.5957 229.5,79.5C 242.598,81.0269 255.598,83.0269 268.5,85.5C 272.04,81.5537 275.54,81.5537 279,85.5C 280.923,84.6839 282.923,84.0172 285,83.5C 285.945,83.9054 286.612,84.572 287,85.5C 288.752,91.6799 289.752,98.0133 290,104.5C 286.53,106.697 282.697,108.031 278.5,108.5C 277.91,109.799 276.91,110.632 275.5,111C 284.833,111.333 294.167,111.667 303.5,112C 306.821,112.97 308.487,115.137 308.5,118.5C 304.43,119.356 300.43,120.523 296.5,122C 291.833,122.333 287.167,122.667 282.5,123C 285.817,123.498 289.15,123.665 292.5,123.5C 292.5,125.833 292.5,128.167 292.5,130.5C 289.813,130.336 287.146,130.503 284.5,131C 286.253,133.58 287.253,136.413 287.5,139.5C 281.151,139.821 274.818,139.987 268.5,140C 264.89,136.231 261.89,132.064 259.5,127.5C 258.503,134.803 258.169,142.137 258.5,149.5C 257.5,149.5 256.5,149.5 255.5,149.5C 255.5,143.5 255.5,137.5 255.5,131.5C 253.473,131.338 251.473,131.505 249.5,132C 255.066,144.303 251.732,153.303 239.5,159C 225.568,161.125 217.401,155.292 215,141.5C 214.529,143.246 213.862,144.913 213,146.5C 210.561,145.138 210.061,143.305 211.5,141C 204.616,139.291 197.782,137.458 191,135.5C 190.517,136.448 190.351,137.448 190.5,138.5C 177.5,138.5 164.5,138.5 151.5,138.5C 151.5,137.5 151.5,136.5 151.5,135.5C 149.5,135.5 147.5,135.5 145.5,135.5C 145.5,136.833 145.5,138.167 145.5,139.5C 134.174,140.612 122.841,140.612 111.5,139.5C 108.981,124.815 100.314,118.315 85.5,120C 77.0629,122.431 72.2295,127.931 71,136.5C 69.2376,140.866 66.571,141.533 63,138.5C 62.4212,136.351 61.9212,134.185 61.5,132C 62.6189,122.824 63.6189,113.657 64.5,104.5C 68.1179,102.091 72.1179,100.591 76.5,100C 83.4732,98.8134 90.4732,97.8134 97.5,97C 98.7158,95.2602 100.382,94.2602 102.5,94C 104.802,88.2601 106.802,82.4267 108.5,76.5C 120.249,76.8323 131.249,76.499 141.5,75.5 Z M 110.5,79.5 C 120.658,78.3415 130.992,78.1748 141.5,79C 142.444,81.7191 142.777,84.5525 142.5,87.5C 141.5,87.5 140.5,87.5 139.5,87.5C 139.5,84.8333 139.5,82.1667 139.5,79.5C 129.833,79.5 120.167,79.5 110.5,79.5 Z M 114.5,81.5 C 114.957,85.8814 115.957,90.2147 117.5,94.5C 115.929,97.0934 113.596,98.0934 110.5,97.5C 110.897,91.9129 112.23,86.5795 114.5,81.5 Z M 121.5,81.5 C 126.167,81.5 130.833,81.5 135.5,81.5C 135.5,86.8333 135.5,92.1667 135.5,97.5C 130.456,97.8275 125.456,97.4941 120.5,96.5C 120.167,95.8333 119.833,95.1667 119.5,94.5C 121.346,90.4183 122.013,86.085 121.5,81.5 Z M 222.5,83.5 C 226.182,83.3347 229.848,83.5014 233.5,84C 232.743,85.5122 231.743,86.8455 230.5,88C 224.846,88.9256 219.18,89.2589 213.5,89C 216.564,87.1412 219.564,85.3079 222.5,83.5 Z M 94.5,108.5 C 84.9853,108.01 75.652,109.01 66.5,111.5C 66.1667,111.167 65.8333,110.833 65.5,110.5C 66.0933,108.618 66.7599,106.785 67.5,105C 78.915,101.607 90.5817,99.607 102.5,99C 104.038,97.0679 105.205,94.9012 106,92.5C 106.667,98.5 106.667,104.5 106,110.5C 102.045,109.023 98.3783,107.023 95,104.5C 93.6658,105.878 93.4991,107.211 94.5,108.5 Z M 195.5,99.5 C 190.429,97.4062 188.763,98.9062 190.5,104C 191.793,104.49 193.127,104.657 194.5,104.5C 193.892,109.091 191.892,109.758 188.5,106.5C 186.605,104.133 186.105,101.466 187,98.5C 189.754,95.2352 192.921,94.7352 196.5,97C 195.748,97.6708 195.414,98.5041 195.5,99.5 Z M 267.5,95.5 C 274.276,94.7764 277.11,97.7764 276,104.5C 272.972,109.028 270.138,109.195 267.5,105C 269.167,104.667 270.833,104.333 272.5,104C 273.931,101.462 273.264,99.6282 270.5,98.5C 268.575,98.5904 267.408,99.5904 267,101.5C 266.322,99.4024 266.489,97.4024 267.5,95.5 Z M 251.5,107.5 C 254.85,107.335 258.183,107.502 261.5,108C 262.5,109 263.5,110 264.5,111C 242.167,111.667 219.833,111.667 197.5,111C 198.672,110.581 199.672,109.915 200.5,109C 217.672,108.832 234.672,108.332 251.5,107.5 Z M 139.5,111.5 C 140.397,112.598 141.23,112.598 142,111.5C 142.499,115.821 142.666,120.154 142.5,124.5C 141.5,124.5 140.5,124.5 139.5,124.5C 139.5,120.167 139.5,115.833 139.5,111.5 Z M 113.5,122.5 C 114.289,122.783 114.956,123.283 115.5,124C 114.184,124.528 113.517,124.028 113.5,122.5 Z M 190.5,131.5 C 198.196,131.169 205.862,131.503 213.5,132.5C 212.948,134.333 212.115,136 211,137.5C 205.29,135.782 199.457,134.448 193.5,133.5C 191.97,133.36 190.97,132.693 190.5,131.5 Z M 216.5,131.5 C 217.239,131.369 217.906,131.536 218.5,132C 215.803,140.721 215.137,140.555 216.5,131.5 Z M 233.5,139.5 C 235.852,140.543 236.019,141.876 234,143.5C 232.232,142.318 232.065,140.985 233.5,139.5 Z"/></g>
<g><path style="opacity:0.629" fill="#fe1817" d="M 99.5,103.5 C 101.167,103.5 102.833,103.5 104.5,103.5C 104.5,104.5 104.5,105.5 104.5,106.5C 102.833,106.5 101.167,106.5 99.5,106.5C 99.5,105.5 99.5,104.5 99.5,103.5 Z"/></g>
<g><path style="opacity:0.932" fill="#fe1716" d="M 85.5,123.5 C 104.566,122.951 111.733,131.951 107,150.5C 100.887,159.374 92.7203,161.874 82.5,158C 72.1074,150.815 69.9407,141.648 76,130.5C 78.8249,127.524 81.9915,125.191 85.5,123.5 Z M 90.5,139.5 C 92.8519,140.543 93.0185,141.876 91,143.5C 89.2317,142.318 89.0651,140.985 90.5,139.5 Z"/></g>
<g><path style="opacity:0.927" fill="#0049ab" d="M 371.5,203.5 C 371.5,206.167 371.5,208.833 371.5,211.5C 369.5,211.5 367.5,211.5 365.5,211.5C 365.657,210.127 365.49,208.793 365,207.5C 364.282,206.549 363.449,206.383 362.5,207C 361.565,209.381 361.232,211.881 361.5,214.5C 364.833,214.5 368.167,214.5 371.5,214.5C 371.5,223.167 371.5,231.833 371.5,240.5C 366.327,245.752 361.161,245.752 356,240.5C 354.874,234.437 354.374,228.271 354.5,222C 354.374,215.729 354.874,209.563 356,203.5C 361.164,198.221 366.331,198.221 371.5,203.5 Z M 361.5,221.5 C 362.833,221.5 364.167,221.5 365.5,221.5C 365.666,226.511 365.499,231.511 365,236.5C 364,237.833 363,237.833 362,236.5C 361.501,231.511 361.334,226.511 361.5,221.5 Z"/></g>
<g><path style="opacity:0.866" fill="#0049ac" d="M -0.5,200.5 C 1.5,200.5 3.5,200.5 5.5,200.5C 5.5,205.167 5.5,209.833 5.5,214.5C 6.83333,214.5 8.16667,214.5 9.5,214.5C 9.5,209.833 9.5,205.167 9.5,200.5C 11.8333,200.5 14.1667,200.5 16.5,200.5C 16.5,214.833 16.5,229.167 16.5,243.5C 14.1667,243.5 11.8333,243.5 9.5,243.5C 9.5,236.167 9.5,228.833 9.5,221.5C 8.16667,221.5 6.83333,221.5 5.5,221.5C 5.5,228.833 5.5,236.167 5.5,243.5C 3.5,243.5 1.5,243.5 -0.5,243.5C -0.5,229.167 -0.5,214.833 -0.5,200.5 Z"/></g>
<g><path style="opacity:0.941" fill="#004aab" d="M 21.5,200.5 C 26.1667,200.5 30.8333,200.5 35.5,200.5C 35.5,202.833 35.5,205.167 35.5,207.5C 32.8333,207.5 30.1667,207.5 27.5,207.5C 27.5,209.833 27.5,212.167 27.5,214.5C 30.1667,214.5 32.8333,214.5 35.5,214.5C 35.5,216.833 35.5,219.167 35.5,221.5C 32.8333,221.5 30.1667,221.5 27.5,221.5C 27.5,226.833 27.5,232.167 27.5,237.5C 30.1667,237.5 32.8333,237.5 35.5,237.5C 35.5,239.5 35.5,241.5 35.5,243.5C 30.8333,243.5 26.1667,243.5 21.5,243.5C 21.5,229.167 21.5,214.833 21.5,200.5 Z"/></g>
<g><path style="opacity:0.911" fill="#0149ac" d="M 61.5,200.5 C 63.7925,200.244 65.9592,200.577 68,201.5C 68.6667,206.167 69.3333,210.833 70,215.5C 71.5617,210.698 72.395,205.698 72.5,200.5C 74.8333,200.5 77.1667,200.5 79.5,200.5C 77.6679,214.49 75.8345,228.49 74,242.5C 71.6667,243.833 69.3333,243.833 67,242.5C 64.838,228.533 63.0046,214.533 61.5,200.5 Z"/></g>
<g><path style="opacity:0.879" fill="#0049ab" d="M 84.5,200.5 C 86.8333,200.5 89.1667,200.5 91.5,200.5C 92.3537,205.231 93.5204,209.898 95,214.5C 96.1783,210.12 97.5117,205.787 99,201.5C 101.401,200.398 103.901,200.231 106.5,201C 103.808,208.744 101.308,216.578 99,224.5C 98.5005,230.825 98.3338,237.158 98.5,243.5C 96.1667,243.5 93.8333,243.5 91.5,243.5C 91.6662,237.158 91.4995,230.825 91,224.5C 88.5174,216.568 86.3508,208.568 84.5,200.5 Z"/></g>
<g><path style="opacity:0.922" fill="#0049ac" d="M 148.5,200.5 C 150.5,200.5 152.5,200.5 154.5,200.5C 154.333,212.171 154.5,223.838 155,235.5C 155.928,237.335 157.094,237.668 158.5,236.5C 159.499,224.518 159.832,212.518 159.5,200.5C 161.833,200.5 164.167,200.5 166.5,200.5C 166.667,212.838 166.5,225.171 166,237.5C 162.753,243.612 157.92,245.112 151.5,242C 150.299,241.097 149.465,239.931 149,238.5C 148.5,225.838 148.333,213.171 148.5,200.5 Z"/></g>
<g><path style="opacity:0.94" fill="#004aac" d="M 171.5,200.5 C 178.5,200.5 185.5,200.5 192.5,200.5C 192.5,202.833 192.5,205.167 192.5,207.5C 190.167,207.5 187.833,207.5 185.5,207.5C 185.5,219.5 185.5,231.5 185.5,243.5C 183.5,243.5 181.5,243.5 179.5,243.5C 179.5,231.5 179.5,219.5 179.5,207.5C 176.833,207.5 174.167,207.5 171.5,207.5C 171.5,205.167 171.5,202.833 171.5,200.5 Z"/></g>
<g><path style="opacity:0.884" fill="#014aac" d="M 196.5,200.5 C 198.833,200.5 201.167,200.5 203.5,200.5C 204.506,204.858 205.673,209.191 207,213.5C 208.331,209.511 209.665,205.511 211,201.5C 213.466,200.223 215.966,200.223 218.5,201.5C 215.846,209.113 213.346,216.78 211,224.5C 210.5,230.825 210.334,237.158 210.5,243.5C 208.167,243.5 205.833,243.5 203.5,243.5C 203.666,237.158 203.5,230.825 203,224.5C 200.517,216.568 198.351,208.568 196.5,200.5 Z"/></g>
<g><path style="opacity:0.947" fill="#004aac" d="M 237.5,200.5 C 244.833,200.5 252.167,200.5 259.5,200.5C 259.5,202.833 259.5,205.167 259.5,207.5C 257.167,207.5 254.833,207.5 252.5,207.5C 252.5,219.5 252.5,231.5 252.5,243.5C 250.167,243.5 247.833,243.5 245.5,243.5C 245.5,231.5 245.5,219.5 245.5,207.5C 242.833,207.5 240.167,207.5 237.5,207.5C 237.5,205.167 237.5,202.833 237.5,200.5 Z"/></g>
<g><path style="opacity:0.87" fill="#0049ac" d="M 267.5,200.5 C 273.156,199.243 276.989,201.243 279,206.5C 279.667,216.833 279.667,227.167 279,237.5C 278.015,241.666 275.348,243.666 271,243.5C 267.196,243.6 264.529,241.934 263,238.5C 262.333,227.5 262.333,216.5 263,205.5C 264.025,203.313 265.525,201.646 267.5,200.5 Z M 269.5,207.5 C 270.5,207.5 271.5,207.5 272.5,207.5C 272.5,217.167 272.5,226.833 272.5,236.5C 271.5,236.5 270.5,236.5 269.5,236.5C 269.5,226.833 269.5,217.167 269.5,207.5 Z"/></g>
<g><path style="opacity:0.921" fill="#004aac" d="M 283.5,200.5 C 285.792,200.244 287.959,200.577 290,201.5C 291.865,219.844 293.365,219.511 294.5,200.5C 296.833,200.5 299.167,200.5 301.5,200.5C 302.285,206.496 303.118,212.496 304,218.5C 304.835,212.486 305.668,206.486 306.5,200.5C 308.857,200.337 311.19,200.503 313.5,201C 311.271,215.1 309.271,229.267 307.5,243.5C 305.167,243.5 302.833,243.5 300.5,243.5C 298.58,223.649 297.246,223.649 296.5,243.5C 293.881,243.768 291.381,243.435 289,242.5C 287.025,228.509 285.192,214.509 283.5,200.5 Z"/></g>
<g><path style="opacity:0.92" fill="#004bab" d="M 317.5,200.5 C 319.833,200.5 322.167,200.5 324.5,200.5C 324.5,214.833 324.5,229.167 324.5,243.5C 322.167,243.5 319.833,243.5 317.5,243.5C 317.5,229.167 317.5,214.833 317.5,200.5 Z"/></g>
<g><path style="opacity:0.892" fill="#004aab" d="M 329.5,200.5 C 332.833,200.5 336.167,200.5 339.5,200.5C 340.711,208.48 341.878,216.48 343,224.5C 343.5,216.507 343.666,208.507 343.5,200.5C 345.833,200.5 348.167,200.5 350.5,200.5C 349.609,214.812 349.275,229.145 349.5,243.5C 346.167,243.5 342.833,243.5 339.5,243.5C 337.186,216.946 336.186,216.946 336.5,243.5C 334.167,243.5 331.833,243.5 329.5,243.5C 329.5,229.167 329.5,214.833 329.5,200.5 Z"/></g>
<g><path style="opacity:0.9" fill="#0149ac" d="M 45.5,200.5 C 48.5,200.5 51.5,200.5 54.5,200.5C 57.1578,214.78 59.4912,229.114 61.5,243.5C 59.2075,243.756 57.0408,243.423 55,242.5C 54.2646,238.187 53.7646,233.853 53.5,229.5C 51.5,229.5 49.5,229.5 47.5,229.5C 47.3314,234.181 46.9981,238.848 46.5,243.5C 44.1667,243.5 41.8333,243.5 39.5,243.5C 41.6867,229.193 43.6867,214.86 45.5,200.5 Z M 50.5,214.5 C 51.21,216.893 51.8767,219.393 52.5,222C 51.552,222.483 50.552,222.649 49.5,222.5C 49.2786,219.721 49.612,217.054 50.5,214.5 Z"/></g>
<g><path style="opacity:0.909" fill="#004aac" d="M 125.5,200.5 C 141.118,199.135 147.118,206.301 143.5,222C 147.563,238.083 141.563,245.249 125.5,243.5C 125.5,229.167 125.5,214.833 125.5,200.5 Z M 132.5,207.5 C 133.822,207.33 134.989,207.663 136,208.5C 136.667,217.5 136.667,226.5 136,235.5C 135,236.167 134,236.833 133,237.5C 132.5,227.506 132.334,217.506 132.5,207.5 Z"/></g>
<g><path style="opacity:0.012" fill="#0054aa" d="M 365.5,248.5 C 366.833,249.167 366.833,249.167 365.5,248.5 Z"/></g>
<g><path style="opacity:0.905" fill="#014aac" d="M 365.5,249.5 C 306.167,279.5 246.833,309.5 187.5,339.5C 185.833,339.5 184.167,339.5 182.5,339.5C 123.379,311.108 64.0455,282.942 4.5,255C 8.31843,255.157 11.9851,256.157 15.5,258C 72.4056,281.371 129.239,304.871 186,328.5C 245.557,301.47 305.39,275.137 365.5,249.5 Z"/></g>
</svg>
